<?xml version="1.0" encoding="UTF-8"?>
<svg version="1.1" xmlns="http://www.w3.org/2000/svg" width="500" height="500">
<path d="M0 0 C8.04645138 3.77690575 12.90964529 9.74544237 16.3125 17.9375 C19.9261852 28.96466813 20.45661799 41.48307965 20 53 C22.31 53 24.62 53 27 53 C23.375 56 23.375 56 20 56 C21.13624177 65.585219 23.44835719 71.78767904 29.59521484 79.11572266 C32.89282745 83.18022192 33.50474436 85.81489881 33 91 C29.535 91.99 29.535 91.99 26 93 C26.495 93.86625 26.495 93.86625 27 94.75 C28 97 28 97 28 101 C27.34 101.66 26.68 102.32 26 103 C25.896875 103.825 25.79375 104.65 25.6875 105.5 C25.460625 106.325 25.23375 107.15 25 108 C22.45703125 109.15625 22.45703125 109.15625 20 110 C20.03480469 110.97582031 20.06960938 111.95164062 20.10546875 112.95703125 C20.13253906 114.22933594 20.15960938 115.50164062 20.1875 116.8125 C20.23970703 118.70935547 20.23970703 118.70935547 20.29296875 120.64453125 C20 124 20 124 18.86328125 125.88671875 C15.6333483 127.8165529 12.72597695 128.33008412 9.00341797 127.61816406 C6.7898578 127.01700025 4.61668311 126.34060948 2.4375 125.625 C0.95761875 125.15699238 -0.5228373 124.69079782 -2.00390625 124.2265625 C-3.04417969 123.89978516 -3.04417969 123.89978516 -4.10546875 123.56640625 C-10.46254273 121.66583774 -16.32662615 121.18439442 -22.6875 123.125 C-28.51656119 126.4244686 -31.62628947 130.78347457 -33.4921875 137.12109375 C-35.39844186 147.9280896 -34.72069046 158.05931528 -30 168 C-29.5565625 168.98097656 -29.113125 169.96195313 -28.65625 170.97265625 C-27.80420953 172.85259438 -26.93742283 174.72597492 -26.05078125 176.58984375 C-23.78493695 181.78696618 -22.8987116 186.97987285 -24.89453125 192.453125 C-25.87885203 194.66523813 -26.90361088 196.84148392 -28 199 C-29 196 -29 196 -28.8125 193 C-28.77527934 184.10426336 -33.52353915 176.87360353 -38.56225586 169.92529297 C-45.73150936 159.95983776 -50.1647505 150.37336398 -49 138 C-47.52762791 130.6006269 -44.90803123 124.51462 -40.75 118.25 C-37.84367595 113.74411327 -35.85989529 110.49729467 -36.5 105.06640625 C-36.7475 104.04353516 -36.7475 104.04353516 -37 103 C-37.2475 101.89978516 -37.2475 101.89978516 -37.5 100.77734375 C-38.36761232 98.28747716 -39.11262024 96.8565114 -41 95 C-44.04672691 93.92343309 -47.03602071 93.30556788 -50.20703125 92.6953125 C-53 92 -53 92 -55.6875 89.6875 C-57.12120298 86.75182247 -57.69818432 84.24451851 -58 81 C-49.22657581 80.3867121 -49.22657581 80.3867121 -45.125 82.4375 C-42.66366255 85.4055834 -41.35421668 88.31754259 -39.9140625 91.87109375 C-38.91040204 94.20867901 -37.66864419 96.08105918 -36 98 C-36.51111563 87.77768741 -40.12791522 77.69906657 -46.6484375 69.69921875 C-50.79293893 66.70443782 -55.48380713 66.76867517 -60.4609375 66.37109375 C-66.43751043 65.74441116 -69.91654904 63.41855544 -73.875 58.9375 C-77.35048824 54.13314861 -77.09336678 50.69537364 -77 45 C-72.77408696 42.88704348 -67.5888276 43.5048442 -63 44 C-57.31753434 45.98376452 -53.93027471 49.69441145 -51 54.83203125 C-49.99388099 57.01326583 -49.33278934 59.12655755 -48.6875 61.4375 C-47.00267674 67.12625619 -43.10674518 70.87374534 -39 75 C-39 73.58195533 -39.10582554 72.16569064 -39.1875 70.75 C-38.99104278 66.82085561 -38.27511345 65.12828099 -36 62 C-33.02750614 62.31848149 -31.96160897 63.03625819 -29.75 65.125 C-27.52829676 68.77494104 -27.48210701 70.78287134 -28 75 C-28.49886719 75.92554688 -28.99773437 76.85109375 -29.51171875 77.8046875 C-31.19270219 81.41372806 -31.34021173 83.73171548 -31.25 87.6875 C-31.22421875 88.90050781 -31.1984375 90.11351562 -31.171875 91.36328125 C-30.94036075 96.26191228 -30.55681626 101.12785773 -30 106 C-21.01067135 93.15810192 -17.69758881 78.52744765 -19 63 C-20.02884162 60.16956237 -21.18506704 58.43881616 -23 56 C-23 55.34 -23 54.68 -23 54 C-23.59167969 53.96261719 -24.18335938 53.92523438 -24.79296875 53.88671875 C-30.69921448 53.39533452 -34.56471172 52.51926374 -38.8125 48.125 C-40.23893649 45.57242944 -40.24002263 43.8802715 -40 41 C-36.05923635 40.133032 -33.60334117 39.79115113 -29.75 41.125 C-25.30846616 44.15331853 -23.82792455 48.07866467 -22 53 C-22.90876261 49.96390675 -23.91848554 46.97890826 -25 44 C-25.23203125 43.33484375 -25.4640625 42.6696875 -25.703125 41.984375 C-27.13214187 38.76208206 -28.25678012 37.33657407 -31.52734375 35.85546875 C-33.46865652 35.20141572 -35.41678646 34.56726151 -37.37109375 33.953125 C-42.06363427 32.25181759 -44.19053811 29.25606155 -46.8125 25.1875 C-48.32449722 21.12898114 -48.28763333 18.31449997 -48 14 C-47.67 13.34 -47.34 12.68 -47 12 C-40.97377769 12.2678321 -36.68760101 12.85746888 -32 17 C-28.81705245 21.21525486 -27.88103259 23.82119643 -27.75 29.0625 C-27.43929789 34.87820611 -25.06146149 38.89403305 -22.09057617 43.71899414 C-17.65557742 50.99799208 -15.27447262 58.586006 -14 67 C-12.948125 65.824375 -12.948125 65.824375 -11.875 64.625 C-8.90842914 61.91639182 -6.8417484 60.98277285 -3 60 C-1.16373299 62.70039267 -1.00402377 64.11065361 -1.125 67.4375 C-2.09690642 71.39454757 -3.05170775 73.2110749 -6 76 C-7.5159375 76.37125 -7.5159375 76.37125 -9.0625 76.75 C-12.08106005 77.67137825 -12.08106005 77.67137825 -13.015625 79.90625 C-14.47052603 84.18537068 -15.4248836 88.51409208 -16 93 C-15.34 93 -14.68 93 -14 93 C-13.74605469 92.42378906 -13.49210937 91.84757812 -13.23046875 91.25390625 C-11.86303842 88.74912118 -10.2779126 87.00330695 -8.3125 84.9375 C5.26933196 69.87938196 11.89233853 51.48447284 11.28125 31.33984375 C10.73654545 20.89740362 7.26015985 12.90857155 2 4 C1.3208102 2.6730021 0.6492147 1.34191747 0 0 Z M-14 75 C-13 78 -13 78 -13 78 Z M-37 78 C-36.34 79.98 -35.68 81.96 -35 84 C-34.67 83.01 -34.34 82.02 -34 81 C-34.99 80.01 -35.98 79.02 -37 78 Z " fill="#F93232" transform="translate(250,121)"/>
<path d="M0 0 C7.97901578 2.50769067 11.57282912 9.06871263 15.5 15.9375 C15.98194824 16.77563232 16.46389648 17.61376465 16.96044922 18.47729492 C27.15888713 36.64575146 30.44797933 57.22453472 24.83178711 77.52612305 C19.49295895 94.99437449 7.61742082 111.18416175 -8.5703125 120.03125 C-26.22132318 129.03577639 -45.84926624 132.39303659 -65.078125 126.65625 C-65.71234375 126.4396875 -66.3465625 126.223125 -67 126 C-67.33 124.68 -67.66 123.36 -68 122 C-67.28199219 122.144375 -66.56398437 122.28875 -65.82421875 122.4375 C-43.56835691 126.42858855 -23.01086136 124.07177816 -3.9609375 110.8984375 C9.37744418 100.49964407 19.41492117 85.38502363 22.59765625 68.59765625 C24.6237813 50.48055754 22.75981864 34.34120552 13.390625 18.4765625 C12 16 12 16 12 14 C11.278125 13.79375 10.55625 13.5875 9.8125 13.375 C5.03458168 11.03912882 2.58928833 7.51531284 0.6875 2.625 C0.460625 1.75875 0.23375 0.8925 0 0 Z " fill="#E63436" transform="translate(286,157)"/>
<path d="M0 0 C1 2 1 2 0.58203125 3.62109375 C-1.90015323 13.7663981 -0.41410431 24.70491497 4 34 C4.4434375 34.98097656 4.886875 35.96195312 5.34375 36.97265625 C6.19579047 38.85259438 7.06257717 40.72597492 7.94921875 42.58984375 C10.21506305 47.78696618 11.1012884 52.97987285 9.10546875 58.453125 C8.12114797 60.66523813 7.09638912 62.84148392 6 65 C5 62 5 62 5.1875 59 C5.22813894 49.28729264 -0.40249106 41.46268512 -5.87890625 33.9453125 C-11 26.83425414 -11 26.83425414 -11 24 C-9.35 23.67 -7.7 23.34 -6 23 C-5.67 22.01 -5.34 21.02 -5 20 C-4.01 20.66 -3.02 21.32 -2 22 C-2.33 21.34 -2.66 20.68 -3 20 C-2.99113765 16.42404224 -2.86783819 12.85880974 -2.7421875 9.28515625 C-2.69517354 6.02531687 -2.69517354 6.02531687 -4.5078125 4.05859375 C-5.24644531 3.53458984 -5.24644531 3.53458984 -6 3 C-5.34 3 -4.68 3 -4 3 C-3.34 2.34 -2.68 1.68 -2 1 C-1.34 0.67 -0.68 0.34 0 0 Z " fill="#E6393A" transform="translate(216,255)"/>
<path d="M0 0 C6.98989946 0.3106622 11.61189678 1.48374157 16.65234375 6.71484375 C18.49174123 9.83382208 18.29522149 12.15928378 18.1875 15.75 C18.16042969 16.92046875 18.13335937 18.0909375 18.10546875 19.296875 C18.07066406 20.18890625 18.03585938 21.0809375 18 22 C13.50745998 23.49751334 10.20681471 21.92227034 6 20 C2.38464497 17.07694699 0.15768151 14.52548228 -1 10 C-1.51178451 3.02356902 -1.51178451 3.02356902 0 0 Z " fill="#F83233" transform="translate(203,133)"/>
<path d="M0 0 C2.97249386 0.31848149 4.03839103 1.03625819 6.25 3.125 C8.47170324 6.77494104 8.51789299 8.78287134 8 13 C7.49984375 13.83917969 6.9996875 14.67835938 6.484375 15.54296875 C4.41060444 20.37267123 4.67532694 24.68352724 4.8125 29.875 C4.82603516 30.84953125 4.83957031 31.8240625 4.85351562 32.828125 C4.88868038 35.21932863 4.9378933 37.60936975 5 40 C4.34 39.67 3.68 39.34 3 39 C3 38.34 3 37.68 3 37 C2.34 37 1.68 37 1 37 C0.76925781 35.94941406 0.53851563 34.89882812 0.30078125 33.81640625 C-1.51246942 25.88497003 -3.33067503 18.79437379 -8 12 C-8.34417969 11.39414063 -8.68835938 10.78828125 -9.04296875 10.1640625 C-10.87631235 7.34455212 -12.49165907 6.10785168 -15.76171875 5.4140625 C-18.52012524 5.1527026 -21.2301228 5.00970185 -24 5 C-24 4.67 -24 4.34 -24 4 C-20.37 4 -16.74 4 -13 4 C-12.67 3.34 -12.34 2.68 -12 2 C-8.7 6.29 -5.4 10.58 -2 15 C-2.33 14.01 -2.66 13.02 -3 12 C-3.37290034 6.96584543 -2.98878273 4.10957626 0 0 Z M-1 16 C-0.34 17.98 0.32 19.96 1 22 C1.33 21.01 1.66 20.02 2 19 C1.01 18.01 0.02 17.02 -1 16 Z " fill="#EB3737" transform="translate(214,183)"/>
<path d="M0 0 C1.46830986 7.09683099 1.46830986 7.09683099 -0.75 11.375 C-3 14 -3 14 -6 16 C-7.32 16 -8.64 16 -10 16 C-10 15.34 -10 14.68 -10 14 C-10.99 14 -11.98 14 -13 14 C-13 16.97 -13 19.94 -13 23 C-13.66 22.67 -14.32 22.34 -15 22 C-15 15.4 -15 8.8 -15 2 C-13 3 -13 3 -11 6 C-10.236875 5.030625 -9.47375 4.06125 -8.6875 3.0625 C-6.02442424 -0.32032597 -4.35630451 -1.4521015 0 0 Z " fill="#F23333" transform="translate(248,182)"/>
<path d="M0 0 C2.536875 -0.103125 5.07375 -0.20625 7.6875 -0.3125 C8.47729248 -0.35802002 9.26708496 -0.40354004 10.08081055 -0.45043945 C14.16018894 -0.53038681 15.63830077 -0.2741989 19.01953125 2.2890625 C21 5 21 5 21 8.6875 C20 12 20 12 17 14 C16.01 14 15.02 14 14 14 C14.639375 15.11375 15.27875 16.2275 15.9375 17.375 C17.00526106 19.23497087 18.04071468 21.08142937 19 23 C17.35 23 15.7 23 14 23 C13.46375 21.865625 12.9275 20.73125 12.375 19.5625 C10.63257149 16.45370668 10.37723731 16.10881846 6.75 15.0625 C5.38875 15.0315625 5.38875 15.0315625 4 15 C4.33 17.64 4.66 20.28 5 23 C3.35 23 1.7 23 0 23 C0 15.41 0 7.82 0 0 Z M4 2 C4 5.63 4 9.26 4 13 C10.59223294 13.6921879 10.59223294 13.6921879 16.0625 10.5 C16.701875 9.675 17.34125 8.85 18 8 C16.88145414 4.27385847 16.88145414 4.27385847 14 2 C12.29297265 1.93003986 10.58331997 1.91559846 8.875 1.9375 C7.26625 1.958125 5.6575 1.97875 4 2 Z " fill="#DA4043" transform="translate(208,329)"/>
<path d="M0 0 C8.77342419 -0.6132879 8.77342419 -0.6132879 12.875 1.4375 C15.31118268 4.3752497 16.55889215 7.19248542 17.94921875 10.72265625 C18.99808765 12.9958554 20.14563104 14.40863787 21.8125 16.25 C25.16168235 20.54879808 24.01232037 25.28104515 23.39453125 30.40234375 C23.26433594 31.25957031 23.13414062 32.11679688 23 33 C22.34 33 21.68 33 21 33 C21.06960937 31.948125 21.06960937 31.948125 21.140625 30.875 C21.34863369 25.4073431 21.39671886 20.44142173 18.671875 15.57421875 C15.65898695 12.73731715 11.74913694 12.45667008 7.79296875 11.6953125 C5 11 5 11 2.3125 8.6875 C0.87879702 5.75182247 0.30181568 3.24451851 0 0 Z " fill="#FC3130" transform="translate(192,202)"/>
<path d="M0 0 C7.97740984 2.50718595 11.57529868 9.06824742 15.5 15.9375 C15.98194824 16.78070801 16.46389648 17.62391602 16.96044922 18.49267578 C23.21149022 29.68087175 26.76308093 40.03406553 27 53 C26.34 53 25.68 53 25 53 C24.67 53.99 24.34 54.98 24 56 C23.90203125 54.91203125 23.8040625 53.8240625 23.703125 52.703125 C22.44800635 39.92134689 19.73057131 29.38142129 13.171875 18.1796875 C12 16 12 16 12 14 C11.278125 13.79375 10.55625 13.5875 9.8125 13.375 C5.03458168 11.03912882 2.58928833 7.51531284 0.6875 2.625 C0.460625 1.75875 0.23375 0.8925 0 0 Z " fill="#DB3B3F" transform="translate(286,157)"/>
<path d="M0 0 C0.9590625 -0.01675781 1.918125 -0.03351563 2.90625 -0.05078125 C5.84780511 0.36121367 6.70423739 1.01319585 8.5 3.3125 C7.51 3.9725 6.52 4.6325 5.5 5.3125 C4.96375 4.796875 4.4275 4.28125 3.875 3.75 C1.49503501 1.98644455 1.49503501 1.98644455 -1.75 2.625 C-2.6575 2.851875 -3.565 3.07875 -4.5 3.3125 C-4.83 4.6325 -5.16 5.9525 -5.5 7.3125 C-4.50097656 7.66183594 -3.50195312 8.01117188 -2.47265625 8.37109375 C-1.16921795 8.83057919 0.1341646 9.29022279 1.4375 9.75 C2.09685547 9.98009766 2.75621094 10.21019531 3.43554688 10.44726562 C8.38671875 12.19921875 8.38671875 12.19921875 9.5 13.3125 C9.8125 16.6875 9.8125 16.6875 9.5 20.3125 C7.33705826 22.50059222 5.92346776 23.24244796 2.87890625 23.74609375 C-4.79200363 23.75673301 -4.79200363 23.75673301 -8.6875 21.3125 C-9.285625 20.6525 -9.88375 19.9925 -10.5 19.3125 C-9.84 17.9925 -9.18 16.6725 -8.5 15.3125 C-7.860625 16.1375 -7.22125 16.9625 -6.5625 17.8125 C-2.47615535 21.14829155 0.42872936 20.8096834 5.5 20.3125 C5.5 18.6625 5.5 17.0125 5.5 15.3125 C4.58476562 14.97476562 3.66953125 14.63703125 2.7265625 14.2890625 C1.53804688 13.84304688 0.34953125 13.39703125 -0.875 12.9375 C-2.05835938 12.49664062 -3.24171875 12.05578125 -4.4609375 11.6015625 C-7.5 10.3125 -7.5 10.3125 -9.5 8.3125 C-9.3125 5.3125 -9.3125 5.3125 -8.5 2.3125 C-5.16602694 0.08985129 -3.90485109 0.01574537 0 0 Z " fill="#DB3D40" transform="translate(265.5,328.6875)"/>
<path d="M0 0 C0.33 0 0.66 0 1 0 C1.1959375 1.258125 1.391875 2.51625 1.59375 3.8125 C4.93396944 23.5381901 12.20394164 39.00623638 27.9609375 51.859375 C30.26207332 54.27512678 30.69089672 55.72579491 31 59 C17.51640441 52.12061449 8.09265785 38.25013235 3.35400391 24.06640625 C0.9530217 16.13040795 -0.72183823 8.34124172 0 0 Z " fill="#E03C3F" transform="translate(169,214)"/>
<path d="M0 0 C1.32 0 2.64 0 4 0 C6.97 7.59 9.94 15.18 13 23 C11.35 23 9.7 23 8 23 C7.34 20.69 6.68 18.38 6 16 C3.03 16 0.06 16 -3 16 C-3.66 18.31 -4.32 20.62 -5 23 C-6.32 22.67 -7.64 22.34 -9 22 C-6.03 14.74 -3.06 7.48 0 0 Z M1 4 C0.01 6.97 -0.98 9.94 -2 13 C0.31 13 2.62 13 5 13 C4.01 10.03 3.02 7.06 2 4 C1.67 4 1.34 4 1 4 Z " fill="#DF3C3F" transform="translate(240,329)"/>
<path d="M0 0 C1.32 0 2.64 0 4 0 C6.97 7.59 9.94 15.18 13 23 C11.35 23 9.7 23 8 23 C7.34 20.69 6.68 18.38 6 16 C3.03 16 0.06 16 -3 16 C-3.66 18.31 -4.32 20.62 -5 23 C-6.32 22.67 -7.64 22.34 -9 22 C-6.03 14.74 -3.06 7.48 0 0 Z M1 4 C0.01 6.97 -0.98 9.94 -2 13 C0.31 13 2.62 13 5 13 C4.01 10.03 3.02 7.06 2 4 C1.67 4 1.34 4 1 4 Z " fill="#E4393F" transform="translate(172,329)"/>
<path d="M0 0 C1.32 0 2.64 0 4 0 C6.97 7.59 9.94 15.18 13 23 C11.35 23 9.7 23 8 23 C7.34 20.69 6.68 18.38 6 16 C3.03 16 0.06 16 -3 16 C-3.66 18.31 -4.32 20.62 -5 23 C-6.32 22.67 -7.64 22.34 -9 22 C-6.03 14.74 -3.06 7.48 0 0 Z M1 4 C0.01 6.97 -0.98 9.94 -2 13 C0.31 13 2.62 13 5 13 C4.01 10.03 3.02 7.06 2 4 C1.67 4 1.34 4 1 4 Z " fill="#E03F3F" transform="translate(287,329)"/>
<path d="M0 0 C5.61 0 11.22 0 17 0 C17 0.99 17 1.98 17 3 C12.71 2.67 8.42 2.34 4 2 C4.33 3.98 4.66 5.96 5 8 C6.98 7.67 8.96 7.34 11 7 C11 8.65 11 10.3 11 12 C8.69 11.34 6.38 10.68 4 10 C4 13.96 4 17.92 4 22 C8.29 21.34 12.58 20.68 17 20 C17 20.99 17 21.98 17 23 C11.39 23 5.78 23 0 23 C0 15.41 0 7.82 0 0 Z " fill="#DC3B3A" transform="translate(321,329)"/>
<path d="M0 0 C2.70146863 1.73171066 3.75365658 2.89882385 4.45703125 6.04296875 C4.71940781 8.01953882 4.86736719 10.01050779 5 12 C-0.00566288 12.29445076 -2.99160747 12.11763863 -7 9 C-9.29518219 6.6256736 -9.96098229 5.57225967 -10.1875 2.25 C-10.125625 1.5075 -10.06375 0.765 -10 0 C-6.72864697 -1.63567651 -3.42638348 -0.85489964 0 0 Z " fill="#FB3230" transform="translate(220,162)"/>
<path d="M0 0 C2.97249386 0.31848149 4.03839103 1.03625819 6.25 3.125 C8.39717586 6.6525032 8.3183515 8.9410184 8 13 C7.01 13.33 6.02 13.66 5 14 C5 14.99 5 15.98 5 17 C2.6875 17.3125 2.6875 17.3125 0 17 C-2.48397396 14.17340894 -2.97402227 12.24245882 -3.375 8.5 C-2.98229145 4.83472021 -2.14523699 2.94970086 0 0 Z " fill="#F93232" transform="translate(214,183)"/>
<path d="M0 0 C1.65 0 3.3 0 5 0 C4.97679687 1.19238281 4.95359375 2.38476562 4.9296875 3.61328125 C4.91092822 5.17968124 4.89272819 6.746088 4.875 8.3125 C4.85824219 9.09818359 4.84148437 9.88386719 4.82421875 10.69335938 C4.81777344 11.45068359 4.81132812 12.20800781 4.8046875 12.98828125 C4.79421387 13.68477783 4.78374023 14.38127441 4.77294922 15.09887695 C4.89425405 17.331173 4.89425405 17.331173 7 20 C10.54187831 20.33338596 10.54187831 20.33338596 14 20 C15.20495909 19.01592689 15.20495909 19.01592689 15.11352539 17.14233398 C15.10828857 16.35157471 15.10305176 15.56081543 15.09765625 14.74609375 C15.09443359 13.89208984 15.09121094 13.03808594 15.08789062 12.15820312 C15.07951172 11.26037109 15.07113281 10.36253906 15.0625 9.4375 C15.05798828 8.53580078 15.05347656 7.63410156 15.04882812 6.70507812 C15.03700225 4.46998686 15.0205222 2.23502563 15 0 C16.32 0.33 17.64 0.66 19 1 C18.91911825 4.10523354 18.8062811 7.20850333 18.6875 10.3125 C18.66494141 11.19357422 18.64238281 12.07464844 18.61914062 12.98242188 C18.58369141 13.82998047 18.54824219 14.67753906 18.51171875 15.55078125 C18.48553467 16.33106689 18.45935059 17.11135254 18.43237305 17.9152832 C17.89791358 20.49221678 17.06411142 21.40788143 15 23 C12.625 23.3984375 12.625 23.3984375 10 23.375 C9.13375 23.38273437 8.2675 23.39046875 7.375 23.3984375 C4.5675499 22.92745081 3.72697012 22.21268047 2 20 C0.88176185 17.76352369 0.80603939 16.35108471 0.68359375 13.8671875 C0.62075195 12.65869141 0.62075195 12.65869141 0.55664062 11.42578125 C0.51732422 10.58402344 0.47800781 9.74226563 0.4375 8.875 C0.39431641 8.02550781 0.35113281 7.17601562 0.30664062 6.30078125 C0.20045764 4.20071777 0.09971503 2.10038052 0 0 Z " fill="#DA4A51" transform="translate(187,329)"/>
<path d="M0 0 C5.61 0 11.22 0 17 0 C16.67 1.32 16.34 2.64 16 4 C15.67 3.67 15.34 3.34 15 3 C13.15108054 2.76636119 11.29511969 2.58696365 9.4375 2.4375 C8.42558594 2.35371094 7.41367187 2.26992188 6.37109375 2.18359375 C5.19740234 2.09271484 5.19740234 2.09271484 4 2 C4 3.98 4 5.96 4 8 C7.465 7.505 7.465 7.505 11 7 C11 8.65 11 10.3 11 12 C8.69 11.34 6.38 10.68 4 10 C4.33 14.29 4.66 18.58 5 23 C3.35 23 1.7 23 0 23 C0 15.41 0 7.82 0 0 Z " fill="#D74042" transform="translate(302,329)"/>
<path d="M0 0 C0.33 0 0.66 0 1 0 C0.979375 0.63164062 0.95875 1.26328125 0.9375 1.9140625 C1.12348165 9.98101641 3.93215233 15.18401408 8.08984375 21.8359375 C10.39083846 25.64740113 12 28.52020239 12 33 C11.34 33 10.68 33 10 33 C9.67 33.99 9.34 34.98 9 36 C6 32.25 6 32.25 6 30 C4.35 30 2.7 30 1 30 C1.99 29.67 2.98 29.34 4 29 C3.67 26.69 3.34 24.38 3 22 C5.22189824 24.22189824 5.92598892 26.08482708 7 29 C4.46660267 20.52874269 4.46660267 20.52874269 0 13 C-2.91805166 11.58136243 -5.83987434 10.70900255 -9 10 C-5.61682513 9.02408417 -3.4342662 9.14143345 0 10 C0 6.7 0 3.4 0 0 Z " fill="#D83D42" transform="translate(221,145)"/>
<path d="M0 0 C-2.72624751 6.47483784 -6.00457685 11.14819183 -12 15 C-14.75390625 15.69140625 -14.75390625 15.69140625 -17 16 C-16.5123518 11.39627036 -14.79452216 9.1737793 -11.6875 5.8125 C-10.90761719 4.95269531 -10.12773437 4.09289062 -9.32421875 3.20703125 C-4.40174672 -1.46724891 -4.40174672 -1.46724891 0 0 Z " fill="#DF3838" transform="translate(254,265)"/>
<path d="M0 0 C5.08117168 2.25357405 7.06433165 5.84796279 9.25 10.875 C10.17504526 14.72935526 10.13645621 18.04276982 10 22 C5.30650966 20.15863065 4.12354978 17.20668758 2.0390625 12.8203125 C0.48204827 8.59413102 0.10480393 4.47798624 0 0 Z " fill="#E8373D" transform="translate(298,200)"/>
<path d="M0 0 C-1.3820417 5.22104643 -4.55135385 8.19032875 -9 11 C-12.2785551 12.27897055 -15.57213031 13.21372808 -19 14 C-17.63680846 8.37683489 -13.44408767 5.32236226 -9 2 C-5.48740111 0.16386876 -4.06107431 0 0 0 Z " fill="#E83537" transform="translate(330,226)"/>
<path d="M0 0 C1.30324219 -0.02126953 1.30324219 -0.02126953 2.6328125 -0.04296875 C4.875 0.1875 4.875 0.1875 6.875 2.1875 C1.03962588 6.29878631 -2.29983317 7.32690399 -9.375 7.25 C-10.45265625 7.24097656 -11.5303125 7.23195313 -12.640625 7.22265625 C-13.46046875 7.21105469 -14.2803125 7.19945312 -15.125 7.1875 C-15.125 6.1975 -15.125 5.2075 -15.125 4.1875 C-9.84862435 1.42939455 -5.94336142 0.04435344 0 0 Z " fill="#E53637" transform="translate(307.125,262.8125)"/>
<path d="M0 0 C-0.17418332 6.84065404 -1.64699627 11.65822534 -6 17 C-8.8125 19.5 -8.8125 19.5 -11 21 C-11.72884027 14.29466947 -9.46824501 9.68159795 -6 4 C-2.66666667 0 -2.66666667 0 0 0 Z " fill="#EC3335" transform="translate(282,252)"/>
<path d="M0 0 C1.3303125 0.7425 1.3303125 0.7425 2.6875 1.5 C2.3575 2.16 2.0275 2.82 1.6875 3.5 C-3.82464873 5.33738291 -10.91443023 5.54369286 -16.5 3.828125 C-18.125 3 -18.125 3 -20.3125 1.5 C-20.3125 0.84 -20.3125 0.18 -20.3125 -0.5 C-14.09233848 -2.57338717 -6.06873167 -2.6418298 0 0 Z " fill="#EE3438" transform="translate(281.3125,284.5)"/>
<path d="M0 0 C3.05593351 2.79020016 3.93192119 4.78566395 4.16796875 8.99609375 C4.17441406 10.13175781 4.18085938 11.26742187 4.1875 12.4375 C4.20167969 13.57058594 4.21585937 14.70367187 4.23046875 15.87109375 C4.01071135 18.85457979 3.55843386 20.49295423 2 23 C-0.56363322 20.77075372 -1.39322333 19.32009875 -2 16 C-2.11670586 14.00242998 -2.17499414 12.00093724 -2.1875 10 C-2.20167969 8.96875 -2.21585937 7.9375 -2.23046875 6.875 C-2.00276947 4.03454797 -1.46504061 2.40892052 0 0 Z " fill="#DD3633" transform="translate(294,228)"/>
<path d="M0 0 C0.66 0.33 1.32 0.66 2 1 C0.32958488 7.11127483 -1.42510593 11.53403198 -6 16 C-8.8125 17.375 -8.8125 17.375 -11 18 C-10.73124573 11.54989753 -8.36586822 7.70327724 -4 3 C-2.69132673 1.96793796 -1.36357761 0.95834956 0 0 Z " fill="#E53736" transform="translate(327,193)"/>
<path d="M0 0 C0.66 0 1.32 0 2 0 C2.66 1.32 3.32 2.64 4 4 C5.98 4 7.96 4 10 4 C10.33 4.99 10.66 5.98 11 7 C11.99 7 12.98 7 14 7 C14 5.68 14 4.36 14 3 C12.68 2.67 11.36 2.34 10 2 C11.32 1.34 12.64 0.68 14 0 C14.23074219 0.56847656 14.46148437 1.13695312 14.69921875 1.72265625 C16.38477576 5.71336236 17.89996099 9.02017322 20.8125 12.25 C24.16168235 16.54879808 23.01232037 21.28104515 22.39453125 26.40234375 C22.26433594 27.25957031 22.13414062 28.11679688 22 29 C21.34 29 20.68 29 20 29 C20.06960937 27.948125 20.06960937 27.948125 20.140625 26.875 C20.34863369 21.4073431 20.39671886 16.44142173 17.671875 11.57421875 C14.65903609 8.73736342 10.75597943 8.45447662 6.796875 7.7109375 C4 7 4 7 1.25 4.4375 C0 2 0 2 0 0 Z " fill="#E5393A" transform="translate(193,206)"/>
<path d="M0 0 C6.3692325 2.98963975 10.27424994 7.02196035 14 13 C14.6953125 15.28125 14.6953125 15.28125 15 17 C14.34 17 13.68 17 13 17 C13 16.34 13 15.68 13 15 C12.34 15 11.68 15 11 15 C11 17.31 11 19.62 11 22 C7.33333333 14.66666667 3.66666667 7.33333333 0 0 Z " fill="#E83639" transform="translate(250,121)"/>
<path d="M0 0 C0.66 0.33 1.32 0.66 2 1 C2 2.65 2 4.3 2 6 C0.02 6.99 -1.96 7.98 -4 9 C-3.97679687 9.98742187 -3.95359375 10.97484375 -3.9296875 11.9921875 C-3.91164063 13.27351562 -3.89359375 14.55484375 -3.875 15.875 C-3.85179687 17.15117187 -3.82859375 18.42734375 -3.8046875 19.7421875 C-4 23 -4 23 -6 25 C-6 22.69 -6 20.38 -6 18 C-6.99 18.66 -7.98 19.32 -9 20 C-9.33 18.35 -9.66 16.7 -10 15 C-9.01 14.67 -8.02 14.34 -7 14 C-7.103125 12.906875 -7.20625 11.81375 -7.3125 10.6875 C-7.209375 9.470625 -7.10625 8.25375 -7 7 C-4.60259082 5.04421883 -3.12413392 4 0 4 C0 2.68 0 1.36 0 0 Z " fill="#EB3437" transform="translate(274,222)"/>
<path d="M0 0 C5.39181358 0.63433101 9.24357932 3.06793725 12.875 7.0625 C14 9 14 9 14 12 C8.73155116 11.68070007 5.45889166 8.72633174 2 5 C0.5625 2.125 0.5625 2.125 0 0 Z " fill="#EB3739" transform="translate(289,177)"/>
<path d="M0 0 C5.62586863 1.76813014 8.77840563 5.16760844 12 10 C12 10.99 12 11.98 12 13 C8.20614979 12.78320856 7.0563797 12.0563797 4.3125 9.3125 C2.08261428 6.41645345 0.92969862 3.54975836 0 0 Z " fill="#E03A3C" transform="translate(286,157)"/>
<path d="M0 0 C0.66 0.99 1.32 1.98 2 3 C1.3203125 5.48046875 1.3203125 5.48046875 0.125 8.1875 C-0.26429688 9.08855469 -0.65359375 9.98960937 -1.0546875 10.91796875 C-1.36664063 11.60503906 -1.67859375 12.29210937 -2 13 C0.31 13 2.62 13 5 13 C5.33 13.66 5.66 14.32 6 15 C1.545 15.495 1.545 15.495 -3 16 C-3.66 18.31 -4.32 20.62 -5 23 C-6.32 22.67 -7.64 22.34 -9 22 C-6.03 14.74 -3.06 7.48 0 0 Z " fill="#E04C4D" transform="translate(172,329)"/>
<path d="M0 0 C1.32 0.33 2.64 0.66 4 1 C3.01 1 2.02 1 1 1 C0.87625 2.051875 0.7525 3.10375 0.625 4.1875 C0.08859218 7.45958771 -0.63880035 10.00536076 -2 13 C-0.02 13 1.96 13 4 13 C4.33 13.66 4.66 14.32 5 15 C2.36 15.33 -0.28 15.66 -3 16 C-3.66 18.31 -4.32 20.62 -5 23 C-6.32 22.67 -7.64 22.34 -9 22 C-6.03 14.74 -3.06 7.48 0 0 Z " fill="#DB4649" transform="translate(240,329)"/>
<path d="M0 0 C0.33 0 0.66 0 1 0 C1.09498779 0.54825439 1.18997559 1.09650879 1.2878418 1.66137695 C3.67955198 15.78932962 3.67955198 15.78932962 9.2421875 28.90625 C10 31 10 31 9.1328125 33.28125 C8.75898438 33.8484375 8.38515625 34.415625 8 35 C2.82203551 23.64122414 -0.76781072 12.59778328 0 0 Z " fill="#D3474E" transform="translate(169,214)"/>
<path d="M0 0 C-0.66 1.32 -1.32 2.64 -2 4 C-8.6 4 -15.2 4 -22 4 C-22 3.01 -22 2.02 -22 1 C-18.70837401 0.83252349 -15.41669287 0.66615639 -12.125 0.5 C-11.18785156 0.45230469 -10.25070313 0.40460938 -9.28515625 0.35546875 C-8.38925781 0.31035156 -7.49335938 0.26523437 -6.5703125 0.21875 C-5.74289551 0.17685547 -4.91547852 0.13496094 -4.06298828 0.09179688 C-2.70965236 0.03157743 -1.35467505 0 0 0 Z " fill="#F03533" transform="translate(253,282)"/>
<path d="M0 0 C0.66 0 1.32 0 2 0 C2.19355213 7.65606218 2.3479743 14.66258031 0 22 C-0.66 22 -1.32 22 -2 22 C-2.30071865 14.44862068 -1.42625566 7.41143564 0 0 Z " fill="#E93535" transform="translate(311,210)"/>
<path d="M0 0 C2.75 1.4375 2.75 1.4375 3.75 3.3125 C3.75 6.04721761 3.4620824 7.27878741 1.75 9.4375 C-1.62228128 10.53715694 -3.38679312 10.84638747 -6.625 9.3125 C-8.25 7.4375 -8.25 7.4375 -8.8125 4.9375 C-8.25 2.4375 -8.25 2.4375 -6.125 0.5 C-3.25 -0.5625 -3.25 -0.5625 0 0 Z M-6.25 3.4375 C-5.92 4.7575 -5.59 6.0775 -5.25 7.4375 C-2.20086772 8.44861093 -2.20086772 8.44861093 0.75 7.4375 C0.75 5.7875 0.75 4.1375 0.75 2.4375 C-2.73581856 1.2354936 -2.92992344 1.22411563 -6.25 3.4375 Z " fill="#252525" transform="translate(157.25,363.5625)"/>
<path d="M0 0 C2.64 0 5.28 0 8 0 C8.144375 0.7425 8.28875 1.485 8.4375 2.25 C8.90187492 4.52027739 9.41863569 6.75759479 10 9 C8.68 9 7.36 9 6 9 C6 8.01 6 7.02 6 6 C4.68 6 3.36 6 2 6 C2 6.99 2 7.98 2 9 C1.34 9 0.68 9 0 9 C0 6.03 0 3.06 0 0 Z M2 2 C2 2.66 2 3.32 2 4 C3.65 4 5.3 4 7 4 C7 3.34 7 2.68 7 2 C5.35 2 3.7 2 2 2 Z " fill="#323131" transform="translate(175,364)"/>
<path d="M0 0 C0.33 0 0.66 0 1 0 C0.125 7.75 0.125 7.75 -1 10 C0.98 10 2.96 10 5 10 C5.33 10.66 5.66 11.32 6 12 C3.36 12.33 0.72 12.66 -2 13 C-2.66 15.31 -3.32 17.62 -4 20 C-5.32 19.67 -6.64 19.34 -8 19 C-5.36 12.73 -2.72 6.46 0 0 Z " fill="#D9464A" transform="translate(286,332)"/>
<path d="M0 0 C2.475 0.99 2.475 0.99 5 2 C5 2.99 5 3.98 5 5 C5.66 5 6.32 5 7 5 C7 6.98 7 8.96 7 11 C5.68 11.33 4.36 11.66 3 12 C2.67 10.35 2.34 8.7 2 7 C1.01 6.67 0.02 6.34 -1 6 C-1.042721 4.33388095 -1.04063832 2.66617115 -1 1 C-0.67 0.67 -0.34 0.34 0 0 Z " fill="#FD3130" transform="translate(210,279)"/>
<path d="M0 0 C2.625 0.9375 2.625 0.9375 5 2 C5 2.66 5 3.32 5 4 C4.01 4 3.02 4 2 4 C3.32 4.66 4.64 5.32 6 6 C5.125 9.875 5.125 9.875 4 11 C2.33382885 11.04063832 0.66611905 11.042721 -1 11 C-1.66 9.68 -2.32 8.36 -3 7 C-1.68 7 -0.36 7 1 7 C-0.32 6.34 -1.64 5.68 -3 5 C-2.625 3.0625 -2.625 3.0625 -2 1 C-1.34 0.67 -0.68 0.34 0 0 Z " fill="#292728" transform="translate(307,363)"/>
<path d="M0 0 C1.32 0 2.64 0 4 0 C6.68219822 5.36439644 7.3152595 9.01006953 7 15 C6.34 15 5.68 15 5 15 C3.19070225 12.28605338 2.73021222 11.01212543 2 8 C1.649375 7.34 1.29875 6.68 0.9375 6 C0 4 0 4 0 0 Z " fill="#EF3436" transform="translate(218,293)"/>
<path d="M0 0 C2.64 0 5.28 0 8 0 C8.70074844 3.153368 9 5.72724974 9 9 C6.03 9 3.06 9 0 9 C0 6.03 0 3.06 0 0 Z M2 2 C2 2.66 2 3.32 2 4 C3.65 3.67 5.3 3.34 7 3 C7 2.67 7 2.34 7 2 C5.35 2 3.7 2 2 2 Z M2 5 C2 5.99 2 6.98 2 8 C3.65 7.67 5.3 7.34 7 7 C6.67 6.34 6.34 5.68 6 5 C4.68 5 3.36 5 2 5 Z " fill="#302D2F" transform="translate(243,364)"/>
<path d="M0 0 C2.625 0.9375 2.625 0.9375 5 2 C5 2.66 5 3.32 5 4 C3.68 4 2.36 4 1 4 C3.475 4.99 3.475 4.99 6 6 C5.125 9.875 5.125 9.875 4 11 C2.33382885 11.04063832 0.66611905 11.042721 -1 11 C-1.66 9.68 -2.32 8.36 -3 7 C-1.68 7 -0.36 7 1 7 C-0.32 6.34 -1.64 5.68 -3 5 C-2.625 3.0625 -2.625 3.0625 -2 1 C-1.34 0.67 -0.68 0.34 0 0 Z " fill="#252324" transform="translate(230,363)"/>
<path d="M0 0 C4.29425875 1.07356469 4.74740471 1.5084773 7 5 C7.33 3.35 7.66 1.7 8 0 C8.66 0 9.32 0 10 0 C10 2.97 10 5.94 10 9 C5.70574125 7.92643531 5.25259529 7.4915227 3 4 C2.67 5.65 2.34 7.3 2 9 C1.34 9 0.68 9 0 9 C0 6.03 0 3.06 0 0 Z " fill="#1F1E20" transform="translate(198,364)"/>
<path d="M0 0 C1.65 0 3.3 0 5 0 C4.67 5.94 4.34 11.88 4 18 C3.01 18 2.02 18 1 18 C0.67 12.06 0.34 6.12 0 0 Z " fill="#EF3A3D" transform="translate(187,329)"/>
<path d="M0 0 C6.0546875 -0.1953125 6.0546875 -0.1953125 8 0 C8.66 0.66 9.32 1.32 10 2 C9.625 5.625 9.625 5.625 9 9 C6.03 9 3.06 9 0 9 C0 6.03 0 3.06 0 0 Z M2 2 C2 3.98 2 5.96 2 8 C3.65 7.67 5.3 7.34 7 7 C7.59070014 5.05396726 7.59070014 5.05396726 8 3 C6.93354885 1.70366379 6.93354885 1.70366379 4.4375 1.9375 C3.633125 1.958125 2.82875 1.97875 2 2 Z " fill="#393939" transform="translate(352,364)"/>
<path d="M0 0 C0.99 0.66 1.98 1.32 3 2 C2.67 2.66 2.34 3.32 2 4 C1.01 3.34 0.02 2.68 -1 2 C-3.0492094 1.54860541 -3.0492094 1.54860541 -5.1875 1.375 C-6.445625 1.25125 -7.70375 1.1275 -9 1 C-9 1.99 -9 2.98 -9 4 C-8.34 4 -7.68 4 -7 4 C-5 6 -5 6 -5 9 C-3.02 9 -1.04 9 1 9 C1.33 9.99 1.66 10.98 2 12 C-4.01696699 11.76404051 -4.01696699 11.76404051 -6.578125 9.7734375 C-8.79871711 7.28484289 -9.95048846 5.45550619 -10.3125 2.125 C-10.209375 1.42375 -10.10625 0.7225 -10 0 C-6.80429821 -1.59785089 -3.38635924 -0.77115111 0 0 Z " fill="#D94046" transform="translate(220,162)"/>
<path d="M0 0 C4.21814817 3.9700218 7.61227103 8.30840284 11 13 C10.34 14.32 9.68 15.64 9 17 C8.60167969 16.31292969 8.20335937 15.62585938 7.79296875 14.91796875 C7.26316406 14.01691406 6.73335937 13.11585938 6.1875 12.1875 C5.66542969 11.29417969 5.14335937 10.40085938 4.60546875 9.48046875 C2.64677828 6.40820466 2.64677828 6.40820466 0 4 C-2.73230305 3.42224116 -2.73230305 3.42224116 -5.6875 3.3125 C-6.68136719 3.24675781 -7.67523438 3.18101562 -8.69921875 3.11328125 C-9.45847656 3.07589844 -10.21773437 3.03851563 -11 3 C-11 2.67 -11 2.34 -11 2 C-7.37 2 -3.74 2 0 2 C0 1.34 0 0.68 0 0 Z " fill="#D83D43" transform="translate(201,185)"/>
<path d="M0 0 C0.66 0 1.32 0 2 0 C1.67402832 0.72018311 1.34805664 1.44036621 1.01220703 2.18237305 C-0.0192973 5.05371686 -0.2324755 7.05324683 -0.1953125 10.08203125 C-0.18886719 11.01337891 -0.18242187 11.94472656 -0.17578125 12.90429688 C-0.15064453 14.34385742 -0.15064453 14.34385742 -0.125 15.8125 C-0.11146484 17.28106445 -0.11146484 17.28106445 -0.09765625 18.77929688 C-0.07417182 21.18645061 -0.0413284 23.59309743 0 26 C-0.66 25.67 -1.32 25.34 -2 25 C-2 24.34 -2 23.68 -2 23 C-2.66 23 -3.32 23 -4 23 C-3.83757812 22.46375 -3.67515625 21.9275 -3.5078125 21.375 C-2.9002172 18.53332354 -2.86773722 15.90511293 -2.875 13 C-2.87242187 11.96875 -2.86984375 10.9375 -2.8671875 9.875 C-2.98136329 7.40342991 -3.28649344 5.3557042 -4 3 C-2.68 3 -1.36 3 0 3 C0 2.01 0 1.02 0 0 Z " fill="#DB3C3D" transform="translate(219,197)"/>
<path d="M0 0 C4.22663314 1.50951183 5.83078032 4.1851654 8 8 C8.75 10.875 8.75 10.875 9 13 C8.34 12.67 7.68 12.34 7 12 C7 11.01 7 10.02 7 9 C6.34 9 5.68 9 5 9 C4.67 8.01 4.34 7.02 4 6 C2.46554906 9.06890187 3.45015711 11.70094266 4 15 C0.59141414 11.59141414 0.06991606 6.67798535 -0.125 2 C-0.08375 1.34 -0.0425 0.68 0 0 Z " fill="#DC3A3C" transform="translate(298,200)"/>
<path d="M0 0 C0.66 0 1.32 0 2 0 C2.66 2.31 3.32 4.62 4 7 C4.99 6.67 5.98 6.34 7 6 C7.33 4.02 7.66 2.04 8 0 C8.66 0 9.32 0 10 0 C10.36923077 5.41538462 10.36923077 5.41538462 8.5 8.375 C8.005 8.91125 7.51 9.4475 7 10 C4.0625 9.625 4.0625 9.625 1 9 C-0.4783226 6.04335481 -0.06032783 3.25770263 0 0 Z " fill="#292728" transform="translate(163,364)"/>
<path d="M0 0 C0.66 0 1.32 0 2 0 C2 0.99 2 1.98 2 3 C3.65 3 5.3 3 7 3 C7 2.01 7 1.02 7 0 C7.66 0 8.32 0 9 0 C9 2.97 9 5.94 9 9 C8.34 9 7.68 9 7 9 C7 7.68 7 6.36 7 5 C5.35 5 3.7 5 2 5 C2 6.32 2 7.64 2 9 C1.34 9 0.68 9 0 9 C0 6.03 0 3.06 0 0 Z " fill="#302D30" transform="translate(315,364)"/>
<path d="M0 0 C0.66 0.33 1.32 0.66 2 1 C0.76921451 5.92314194 -0.68740225 8.26518192 -5 11 C-5.99 11 -6.98 11 -8 11 C-6.52670958 5.99081256 -3.72484762 3.48192278 0 0 Z " fill="#EA3232" transform="translate(293,258)"/>
<path d="M0 0 C1.58246707 -0.08153933 3.16616273 -0.13943557 4.75 -0.1875 C6.07257813 -0.23970703 6.07257813 -0.23970703 7.421875 -0.29296875 C10.44671583 0.05076316 11.75583602 1.00227459 14 3 C13.67 3.99 13.34 4.98 13 6 C10.69 6 8.38 6 6 6 C5.67 5.34 5.34 4.68 5 4 C5.33 3.34 5.66 2.68 6 2 C4.35 1.67 2.7 1.34 1 1 C0.67 1.66 0.34 2.32 0 3 C0 2.01 0 1.02 0 0 Z " fill="#EC3535" transform="translate(192,202)"/>
<path d="M0 0 C0.99 0 1.98 0 3 0 C6 5.625 6 5.625 6 9 C5.34 9 4.68 9 4 9 C4 8.34 4 7.68 4 7 C2.35 7 0.7 7 -1 7 C-1 7.66 -1 8.32 -1 9 C-1.99 8.67 -2.98 8.34 -4 8 C-2.68 5.36 -1.36 2.72 0 0 Z M1 3 C0.67 3.99 0.34 4.98 0 6 C0.99 5.67 1.98 5.34 3 5 C2.34 4.34 1.68 3.68 1 3 Z " fill="#292929" transform="translate(284,364)"/>
<path d="M0 0 C3.26954202 0.56371414 4.82575883 1.49962266 7 4 C6.67 4.66 6.34 5.32 6 6 C5.34 5.34 4.68 4.68 4 4 C2.68 4.33 1.36 4.66 0 5 C0 8.63 0 12.26 0 16 C-3.34107739 11.54523015 -3.56345302 10.3528037 -3 5 C-1.5 2.0625 -1.5 2.0625 0 0 Z " fill="#DC3C3A" transform="translate(214,183)"/>
<path d="M0 0 C2.64 0 5.28 0 8 0 C8 0.66 8 1.32 8 2 C6.02 2 4.04 2 2 2 C2 2.66 2 3.32 2 4 C3.98 4 5.96 4 8 4 C8 4.33 8 4.66 8 5 C6.02 5 4.04 5 2 5 C2 5.99 2 6.98 2 8 C3.98 8 5.96 8 8 8 C8 8.33 8 8.66 8 9 C5.36 9 2.72 9 0 9 C0 6.03 0 3.06 0 0 Z " fill="#272727" transform="translate(332,364)"/>
<path d="M0 0 C2.64 0 5.28 0 8 0 C8 0.66 8 1.32 8 2 C6.02 2 4.04 2 2 2 C2 2.66 2 3.32 2 4 C3.98 4 5.96 4 8 4 C8 4.33 8 4.66 8 5 C6.02 5 4.04 5 2 5 C2 5.99 2 6.98 2 8 C3.98 8 5.96 8 8 8 C8 8.33 8 8.66 8 9 C5.36 9 2.72 9 0 9 C0 6.03 0 3.06 0 0 Z " fill="#212121" transform="translate(264,364)"/>
<path d="M0 0 C1.07765625 0.00902344 2.1553125 0.01804688 3.265625 0.02734375 C4.08546875 0.03894531 4.9053125 0.05054688 5.75 0.0625 C5.75 0.7225 5.75 1.3825 5.75 2.0625 C5.03714844 2.02769531 4.32429688 1.99289063 3.58984375 1.95703125 C-4.51658944 1.72791268 -9.87678411 2.70899865 -16.25 8.0625 C-16.25 6.4125 -16.25 4.7625 -16.25 3.0625 C-10.53886544 1.11552231 -6.06154491 -0.06588636 0 0 Z " fill="#E2393D" transform="translate(236.25,240.9375)"/>
<path d="M0 0 C7.57142857 4 7.57142857 4 10 8 C9.01 8 8.02 8 7 8 C7 8.66 7 9.32 7 10 C7.66 10 8.32 10 9 10 C9 11.65 9 13.3 9 15 C6.8541558 12.17753826 4.80070866 9.310676 2.8125 6.375 C2.01779297 5.21097656 2.01779297 5.21097656 1.20703125 4.0234375 C0 2 0 2 0 0 Z " fill="#E1373B" transform="translate(250,121)"/>
<path d="M0 0 C3.44596858 -0.55135497 5.91362902 -0.78357396 8.8359375 1.32421875 C11.78402493 4.62524623 12.9544084 6.94779394 13.1484375 11.42578125 C12.90145 14.65426071 12.53532327 17.80752671 12 21 C11.34 21 10.68 21 10 21 C10.06960937 19.948125 10.06960937 19.948125 10.140625 18.875 C10.37833572 12.62660402 10.33202954 6.90963348 6 2 C2.87866256 0.86521065 2.87866256 0.86521065 0 1 C0 0.67 0 0.34 0 0 Z " fill="#D34749" transform="translate(203,214)"/>
<path d="M0 0 C3 1 3 1 4.1875 3.0625 C4.455625 3.701875 4.72375 4.34125 5 5 C5.45375 4.175 5.9075 3.35 6.375 2.5 C6.91125 1.675 7.4475 0.85 8 0 C8.66 0 9.32 0 10 0 C8.94124926 3.40312738 7.99097846 6.01353231 6 9 C5.01 9 4.02 9 3 9 C2.01 6.03 1.02 3.06 0 0 Z " fill="#282828" transform="translate(210,364)"/>
<path d="M0 0 C-2.31 0.66 -4.62 1.32 -7 2 C-6.67 2.5775 -6.34 3.155 -6 3.75 C-5 6 -5 6 -5 10 C-5.66 10 -6.32 10 -7 10 C-9 8 -9 8 -10 5 C-9.5625 2.3125 -9.5625 2.3125 -9 0 C-5.62182575 -0.84454356 -3.32534757 -1.10844919 0 0 Z " fill="#E73536" transform="translate(283,212)"/>
<path d="M0 0 C2.475 0.99 2.475 0.99 5 2 C5.33 1.34 5.66 0.68 6 0 C6.99 0 7.98 0 9 0 C8.566875 0.8353125 8.566875 0.8353125 8.125 1.6875 C6.9586747 4.08494645 5.9660119 6.51596939 5 9 C4.34 9 3.68 9 3 9 C2.01 6.03 1.02 3.06 0 0 Z " fill="#222222" transform="translate(138,364)"/>
<path d="M0 0 C3.68754757 0.49831724 5.60490662 1.10067643 8 4 C7.34 4.66 6.68 5.32 6 6 C6.99 7.32 7.98 8.64 9 10 C4.71095765 8.4114658 2.67654474 5.56872632 0 2 C0 1.34 0 0.68 0 0 Z " fill="#DC3B3F" transform="translate(289,177)"/>
<path d="M0 0 C0.33 0 0.66 0 1 0 C1.19532961 1.7699868 1.38098882 3.54104279 1.5625 5.3125 C1.66691406 6.29863281 1.77132812 7.28476563 1.87890625 8.30078125 C2 11 2 11 1 14 C-3.95 12.02 -3.95 12.02 -9 10 C-5.16380575 9.04095144 -3.67568464 9.08107884 0 10 C0 6.7 0 3.4 0 0 Z " fill="#DF393D" transform="translate(221,145)"/>
<path d="M0 0 C1.65 0 3.3 0 5 0 C4.67 1.32 4.34 2.64 4 4 C3.01 3.67 2.02 3.34 1 3 C1.16371094 3.55171875 1.32742187 4.1034375 1.49609375 4.671875 C2.05760414 7.26614007 2.09739008 9.59835411 2.0625 12.25 C2.05347656 13.14203125 2.04445312 14.0340625 2.03515625 14.953125 C2.02355469 15.62859375 2.01195312 16.3040625 2 17 C0 15 0 15 -0.1953125 11.5234375 C-0.18201493 10.14049032 -0.15816232 8.75761346 -0.125 7.375 C-0.11597656 6.66859375 -0.10695312 5.9621875 -0.09765625 5.234375 C-0.07407603 3.48943902 -0.03820461 1.74467705 0 0 Z " fill="#F33537" transform="translate(203,262)"/>
<path d="M0 0 C2 1 2 1 3 3 C2.34 3 1.68 3 1 3 C1 3.66 1 4.32 1 5 C0.01 5 -0.98 5 -2 5 C-2 5.66 -2 6.32 -2 7 C-3.32 6.67 -4.64 6.34 -6 6 C-3.375 1.125 -3.375 1.125 0 0 Z " fill="#F9302E" transform="translate(320,230)"/>
<path d="M0 0 C2.09782787 2.09782787 2.6509396 3.3799207 3.625 6.125 C3.88539063 6.84945313 4.14578125 7.57390625 4.4140625 8.3203125 C4.70410156 9.15175781 4.70410156 9.15175781 5 10 C3.35 10 1.7 10 0 10 C-0.66 7.36 -1.32 4.72 -2 2 C-1.34 2 -0.68 2 0 2 C0 1.34 0 0.68 0 0 Z " fill="#D73E46" transform="translate(180,342)"/>
<path d="M0 0 C1.77007714 -0.08114106 3.54122098 -0.13925505 5.3125 -0.1875 C6.29863281 -0.22230469 7.28476562 -0.25710938 8.30078125 -0.29296875 C11 0 11 0 12.85546875 1.51171875 C13.23316406 2.00285156 13.61085938 2.49398438 14 3 C13.01 3.66 12.02 4.32 11 5 C10.484375 4.484375 9.96875 3.96875 9.4375 3.4375 C6.0289729 1.42734299 3.76893143 2.20272604 0 3 C0 2.01 0 1.02 0 0 Z " fill="#D0454A" transform="translate(260,329)"/>
<path d="M0 0 C1.485 0.99 1.485 0.99 3 2 C3.40843923 4.71203652 3.13336867 7.2437142 3 10 C2.01 10 1.02 10 0 10 C-0.74926071 6.33694766 -1.2380014 3.57644848 0 0 Z " fill="#FC3134" transform="translate(294,234)"/>
<path d="M0 0 C2.94586829 4.41880243 3.0985616 6.67767339 3 12 C2.34 12 1.68 12 1 12 C0.67 12.99 0.34 13.98 0 15 C0 10.05 0 5.1 0 0 Z " fill="#E23B3F" transform="translate(310,198)"/>
<path d="M0 0 C0.99 0.33 1.98 0.66 3 1 C2.01 2.98 1.02 4.96 0 7 C-0.66 7 -1.32 7 -2 7 C-2.33 6.01 -2.66 5.02 -3 4 C-4.98 4.99 -4.98 4.99 -7 6 C-2.25 1.125 -2.25 1.125 0 0 Z " fill="#E0373E" transform="translate(251,264)"/>
<path d="M0 0 C4.29 0 8.58 0 13 0 C12.67 1.32 12.34 2.64 12 4 C11.67 3.67 11.34 3.34 11 3 C9.15108054 2.76636119 7.29511969 2.58696365 5.4375 2.4375 C4.42558594 2.35371094 3.41367187 2.26992188 2.37109375 2.18359375 C1.19740234 2.09271484 1.19740234 2.09271484 0 2 C0 1.34 0 0.68 0 0 Z " fill="#D04547" transform="translate(306,329)"/>
<path d="M0 0 C0.66 0.33 1.32 0.66 2 1 C1.57405412 2.44096586 1.13373367 3.87768712 0.6875 5.3125 C0.44386719 6.11300781 0.20023437 6.91351563 -0.05078125 7.73828125 C-1.04182023 10.09964573 -2.08074943 11.33879993 -4 13 C-3.67 11.02 -3.34 9.04 -3 7 C-2.34 7 -1.68 7 -1 7 C-1 6.01 -1 5.02 -1 4 C-1.99 3.67 -2.98 3.34 -4 3 C-2.68 2.01 -1.36 1.02 0 0 Z " fill="#DB3A40" transform="translate(327,193)"/>
<path d="M0 0 C0.66 0 1.32 0 2 0 C5.875 6.75 5.875 6.75 7 9 C5.35 9 3.7 9 2 9 C0.14223235 5.86501708 -0.20140476 3.62528568 0 0 Z " fill="#DF3B3E" transform="translate(220,343)"/>
<path d="M0 0 C1.32 0.33 2.64 0.66 4 1 C3.01 1 2.02 1 1 1 C0.87625 2.051875 0.7525 3.10375 0.625 4.1875 C0.08859218 7.45958771 -0.63880035 10.00536076 -2 13 C-2.66 13 -3.32 13 -4 13 C-3.27991594 8.39146203 -1.68704061 4.32762591 0 0 Z " fill="#D44D52" transform="translate(240,329)"/>
<path d="M0 0 C0.66 0.33 1.32 0.66 2 1 C1.67 2.32 1.34 3.64 1 5 C0.01 5 -0.98 5 -2 5 C-2 5.99 -2 6.98 -2 8 C-3.32 8 -4.64 8 -6 8 C-4.73058503 4.08597051 -3.48832306 2.20927127 0 0 Z " fill="#FD312F" transform="translate(248,267)"/>
<path d="M0 0 C1.32 0 2.64 0 4 0 C4 0.99 4 1.98 4 3 C3.34 3 2.68 3 2 3 C1.67 4.65 1.34 6.3 1 8 C0.01 7.34 -0.98 6.68 -2 6 C-1.125 1.125 -1.125 1.125 0 0 Z " fill="#F43033" transform="translate(322,197)"/>
<path d="M0 0 C0.99 0.33 1.98 0.66 3 1 C2.67 3.31 2.34 5.62 2 8 C-0.64 8 -3.28 8 -6 8 C-4 7 -2 6 0 5 C0 3.35 0 1.7 0 0 Z " fill="#2A2A2A" transform="translate(359,365)"/>
<path d="M0 0 C0.33 0.66 0.66 1.32 1 2 C1.99 2.33 2.98 2.66 4 3 C4 2.34 4 1.68 4 1 C5.32 1.33 6.64 1.66 8 2 C6.5437455 2.67119549 5.08492133 3.33681807 3.625 4 C2.40683594 4.556875 2.40683594 4.556875 1.1640625 5.125 C-1 6 -1 6 -3 6 C-1.125 1.125 -1.125 1.125 0 0 Z " fill="#D5383A" transform="translate(314,234)"/>
<path d="M0 0 C1.5 1.1875 1.5 1.1875 3 3 C3.1875 5.6875 3.1875 5.6875 3 8 C2.34 7.67 1.68 7.34 1 7 C0.34 7.99 -0.32 8.98 -1 10 C-1.02689216 8.52093108 -1.04634621 7.04172517 -1.0625 5.5625 C-1.07410156 4.73878906 -1.08570313 3.91507813 -1.09765625 3.06640625 C-1 1 -1 1 0 0 Z " fill="#EC3332" transform="translate(294,228)"/>
<path d="M0 0 C2.95749791 3.46741134 5.07848152 6.86873527 7 11 C6.34 11.66 5.68 12.32 5 13 C4.16151196 11.54462432 3.32936066 10.08559627 2.5 8.625 C1.80390625 7.40683594 1.80390625 7.40683594 1.09375 6.1640625 C0 4 0 4 0 2 C-0.66 1.67 -1.32 1.34 -2 1 C-1.34 0.67 -0.68 0.34 0 0 Z " fill="#D0474B" transform="translate(298,169)"/>
<path d="M0 0 C0.66 0 1.32 0 2 0 C2 0.66 2 1.32 2 2 C3.65 2 5.3 2 7 2 C7 2.33 7 2.66 7 3 C5.35 3 3.7 3 2 3 C2 3.99 2 4.98 2 6 C3.65 6 5.3 6 7 6 C7 6.33 7 6.66 7 7 C4.69 7 2.38 7 0 7 C0 4.69 0 2.38 0 0 Z " fill="#212121" transform="translate(243,366)"/>
<path d="M0 0 C3 3.75 3 3.75 3 6 C3.969375 6.28875 4.93875 6.5775 5.9375 6.875 C9 8 9 8 10 10 C4.80177328 8.63855967 1.90456127 6.53269829 -2 3 C-1.34 2.67 -0.68 2.34 0 2 C0 1.34 0 0.68 0 0 Z " fill="#DD3C40" transform="translate(178,177)"/>
<path d="M0 0 C0.66 0 1.32 0 2 0 C2 2.64 2 5.28 2 8 C3.65 8 5.3 8 7 8 C7 8.33 7 8.66 7 9 C4.69 9 2.38 9 0 9 C0 6.03 0 3.06 0 0 Z " fill="#2B2B2B" transform="translate(343,364)"/>
<path d="M0 0 C0.66 0 1.32 0 2 0 C2 2.64 2 5.28 2 8 C3.65 8 5.3 8 7 8 C7 8.33 7 8.66 7 9 C4.69 9 2.38 9 0 9 C0 6.03 0 3.06 0 0 Z " fill="#272627" transform="translate(255,364)"/>
<path d="M0 0 C2 3 2 3 1.64453125 5.0078125 C1.36996094 5.70648438 1.09539062 6.40515625 0.8125 7.125 C0.55082031 7.82882812 0.28914062 8.53265625 0.01953125 9.2578125 C-1 11 -1 11 -4 12 C-2.66666667 8 -1.33333333 4 0 0 Z " fill="#DE5157" transform="translate(172,329)"/>
<path d="M0 0 C0.66 0.33 1.32 0.66 2 1 C2 1.99 2 2.98 2 4 C2.66 4 3.32 4 4 4 C4.33 5.32 4.66 6.64 5 8 C3.35 7.67 1.7 7.34 0 7 C-1.125 2.25 -1.125 2.25 0 0 Z " fill="#FB322E" transform="translate(301,205)"/>
<path d="M0 0 C2 1 2 1 2.875 2.9375 C4.22909764 5.42001234 5.42178493 5.96871397 8 7 C6.25 7.6875 6.25 7.6875 4 8 C1.75 6.875 1.75 6.875 0 5 C-0.25 2.3125 -0.25 2.3125 0 0 Z " fill="#2C2C2C" transform="translate(149,366)"/>
<path d="M0 0 C1.32 0.66 2.64 1.32 4 2 C3.01 2.33 2.02 2.66 1 3 C0.87625 3.804375 0.7525 4.60875 0.625 5.4375 C0.41875 6.283125 0.2125 7.12875 0 8 C-0.99 8.495 -0.99 8.495 -2 9 C-1.125 2.25 -1.125 2.25 0 0 Z " fill="#E93636" transform="translate(261,169)"/>
<path d="M0 0 C0.33 0.66 0.66 1.32 1 2 C0.01 2.99 -0.98 3.98 -2 5 C-2.99 4.67 -3.98 4.34 -5 4 C-5.33 3.01 -5.66 2.02 -6 1 C-4.02 0.67 -2.04 0.34 0 0 Z " fill="#F03435" transform="translate(310,264)"/>
<path d="M0 0 C2.64 0 5.28 0 8 0 C8 0.66 8 1.32 8 2 C6.02 2 4.04 2 2 2 C2 2.66 2 3.32 2 4 C1.34 4 0.68 4 0 4 C0 2.68 0 1.36 0 0 Z " fill="#3A3637" transform="translate(264,364)"/>
<path d="M0 0 C1.37562854 1.28965176 2.70766393 2.62689293 4 4 C4 4.66 4 5.32 4 6 C2.35 5.67 0.7 5.34 -1 5 C-1.33 3.68 -1.66 2.36 -2 1 C-1.34 0.67 -0.68 0.34 0 0 Z " fill="#DA4142" transform="translate(191,346)"/>
<path d="M0 0 C1.0625 1.8125 1.0625 1.8125 2 4 C1.67 4.99 1.34 5.98 1 7 C-0.65 7.33 -2.3 7.66 -4 8 C-2.87548273 5.0280615 -1.77706209 2.66559313 0 0 Z " fill="#E9333A" transform="translate(253,190)"/>
<path d="M0 0 C0.99 0 1.98 0 3 0 C3.0825 0.78375 3.165 1.5675 3.25 2.375 C3.71525923 5.14044802 3.71525923 5.14044802 6 6.1875 C6.66 6.455625 7.32 6.72375 8 7 C8.33 7.66 8.66 8.32 9 9 C5.62917442 7.55536047 3.41962708 5.75336875 1 3 C0.67 2.01 0.34 1.02 0 0 Z " fill="#E4353A" transform="translate(203,145)"/>
<path d="M0 0 C1.70884005 1.62339805 3.37446717 3.29319053 5 5 C5 5.66 5 6.32 5 7 C3.02 7 1.04 7 -1 7 C-0.67 4.69 -0.34 2.38 0 0 Z " fill="#E43836" transform="translate(216,137)"/>
<path d="M0 0 C0.33 0 0.66 0 1 0 C0.125 7.75 0.125 7.75 -1 10 C-1.66 10 -2.32 10 -3 10 C-2.39009109 6.44219804 -1.4216319 3.3171411 0 0 Z " fill="#D04E4F" transform="translate(286,332)"/>
<path d="M0 0 C0 1.65 0 3.3 0 5 C-2.31 4.34 -4.62 3.68 -7 3 C-6.67 2.34 -6.34 1.68 -6 1 C-3.911361 0.32624548 -2.19636905 0 0 0 Z " fill="#D2484A" transform="translate(332,336)"/>
<path d="M0 0 C0.99 0 1.98 0 3 0 C2.50351065 4.46840411 2.31012244 5.68987756 -1 9 C-0.67 6.03 -0.34 3.06 0 0 Z " fill="#D84348" transform="translate(222,311)"/>
<path d="M0 0 C0.33 0 0.66 0 1 0 C1 2.31 1 4.62 1 7 C0.01 7.33 -0.98 7.66 -2 8 C-3 7 -3 7 -3.0625 4.4375 C-3.041875 3.633125 -3.02125 2.82875 -3 2 C-2.67 2.66 -2.34 3.32 -2 4 C-1.34 4 -0.68 4 0 4 C0 2.68 0 1.36 0 0 Z " fill="#E53737" transform="translate(225,304)"/>
<path d="M0 0 C1.485 0.99 1.485 0.99 3 2 C3.1875 4.625 3.1875 4.625 3 7 C2.34 7 1.68 7 1 7 C-1 4 -1 4 -0.625 1.8125 C-0.41875 1.214375 -0.2125 0.61625 0 0 Z " fill="#FB312F" transform="translate(222,301)"/>
<path d="M0 0 C2.31 0.33 4.62 0.66 7 1 C6.01 1.66 5.02 2.32 4 3 C4.99 3.66 5.98 4.32 7 5 C4.03 4.505 4.03 4.505 1 4 C0.67 2.68 0.34 1.36 0 0 Z " fill="#D64143" transform="translate(218,279)"/>
<path d="M0 0 C0.66 0.33 1.32 0.66 2 1 C1.67 1.33 1.34 1.66 1 2 C1.66 2.66 2.32 3.32 3 4 C0.6875 4.6875 0.6875 4.6875 -2 5 C-3.8125 3.5625 -3.8125 3.5625 -5 2 C-2.625 0.9375 -2.625 0.9375 0 0 Z " fill="#E23535" transform="translate(268,276)"/>
<path d="M0 0 C0.33 0 0.66 0 1 0 C1 1.98 1 3.96 1 6 C1.66 6.33 2.32 6.66 3 7 C1.68 7.99 0.36 8.98 -1 10 C-1.125 3.375 -1.125 3.375 0 0 Z " fill="#E33636" transform="translate(272,263)"/>
<path d="M0 0 C0.33 0.99 0.66 1.98 1 3 C2.98 3 4.96 3 7 3 C7.33 3.99 7.66 4.98 8 6 C5.69 5.67 3.38 5.34 1 5 C0.67 3.35 0.34 1.7 0 0 Z " fill="#EA3B3C" transform="translate(214,168)"/>
<path d="M0 0 C0.66 0 1.32 0 2 0 C2 2.97 2 5.94 2 9 C1.34 9 0.68 9 0 9 C0 6.03 0 3.06 0 0 Z " fill="#333234" transform="translate(327,364)"/>
<path d="M0 0 C0.66 0 1.32 0 2 0 C2 2.97 2 5.94 2 9 C1.34 9 0.68 9 0 9 C0 6.03 0 3.06 0 0 Z " fill="#353636" transform="translate(238,364)"/>
<path d="M0 0 C0.66 0 1.32 0 2 0 C2 2.97 2 5.94 2 9 C1.34 9 0.68 9 0 9 C0 6.03 0 3.06 0 0 Z " fill="#373636" transform="translate(293,364)"/>
<path d="M0 0 C0.66 0 1.32 0 2 0 C2 2.97 2 5.94 2 9 C1.34 9 0.68 9 0 9 C0 6.03 0 3.06 0 0 Z " fill="#353436" transform="translate(222,364)"/>
<path d="M0 0 C0.66 0 1.32 0 2 0 C2 2.97 2 5.94 2 9 C1.34 9 0.68 9 0 9 C0 6.03 0 3.06 0 0 Z " fill="#302F2F" transform="translate(194,364)"/>
<path d="M0 0 C2.64 0 5.28 0 8 0 C8 0.66 8 1.32 8 2 C5.36 2.33 2.72 2.66 0 3 C0 2.01 0 1.02 0 0 Z " fill="#3B3B3C" transform="translate(332,364)"/>
<path d="M0 0 C0 0.99 0 1.98 0 3 C-0.99 3 -1.98 3 -3 3 C-3 4.32 -3 5.64 -3 7 C-3.99 7 -4.98 7 -6 7 C-4.52307692 2.32307692 -4.52307692 2.32307692 -1.875 0.6875 C-1.25625 0.460625 -0.6375 0.23375 0 0 Z " fill="#F6302F" transform="translate(291,262)"/>
<path d="M0 0 C0.66 0 1.32 0 2 0 C2.75 1.75 2.75 1.75 3 4 C1.0625 6.25 1.0625 6.25 -1 8 C-1.33 6.68 -1.66 5.36 -2 4 C-1.34 4 -0.68 4 0 4 C0 2.68 0 1.36 0 0 Z " fill="#FA2F2D" transform="translate(231,206)"/>
<path d="M0 0 C2.5 1.25 2.5 1.25 5 3 C5 4.32 5 5.64 5 7 C4.01 6.67 3.02 6.34 2 6 C0.8125 2.9375 0.8125 2.9375 0 0 Z " fill="#F03432" transform="translate(292,162)"/>
<path d="M0 0 C3.465 1.98 3.465 1.98 7 4 C6.01 4.495 6.01 4.495 5 5 C4.67 5.66 4.34 6.32 4 7 C0 2.25 0 2.25 0 0 Z " fill="#D53E44" transform="translate(250,121)"/>
<path d="M0 0 C1.32 0 2.64 0 4 0 C4.66 1.65 5.32 3.3 6 5 C4.35 5 2.7 5 1 5 C0.67 3.35 0.34 1.7 0 0 Z " fill="#D24041" transform="translate(294,347)"/>
<path d="M0 0 C0 0.99 0 1.98 0 3 C-3.96 2.67 -7.92 2.34 -12 2 C-12 1.67 -12 1.34 -12 1 C-10.37512529 0.83211627 -8.75009558 0.66573213 -7.125 0.5 C-6.22007812 0.4071875 -5.31515625 0.314375 -4.3828125 0.21875 C-2 0 -2 0 0 0 Z " fill="#CE5254" transform="translate(338,329)"/>
<path d="M0 0 C0.99 0.33 1.98 0.66 3 1 C2.67 1.66 2.34 2.32 2 3 C-0.64860427 3.59355614 -3.29197322 3.74209269 -6 4 C-5.67 3.34 -5.34 2.68 -5 2 C-3.35 2 -1.7 2 0 2 C0 1.34 0 0.68 0 0 Z " fill="#D74241" transform="translate(281,285)"/>
<path d="M0 0 C0.33 0 0.66 0 1 0 C1 1.65 1 3.3 1 5 C1.66 5 2.32 5 3 5 C2.67 6.65 2.34 8.3 2 10 C1.67 9.01 1.34 8.02 1 7 C0.34 7 -0.32 7 -1 7 C-0.67 4.69 -0.34 2.38 0 0 Z " fill="#D23B3F" transform="translate(308,227)"/>
<path d="M0 0 C2.5654594 2.5654594 2.54046087 4.47686668 3 8 C2.34 8 1.68 8 1 8 C-0.42944945 5.64561267 -1.08661261 4.51967567 -0.625 1.75 C-0.41875 1.1725 -0.2125 0.595 0 0 Z " fill="#E73738" transform="translate(198,176)"/>
<path d="" fill="#925B5B" transform="translate(0,0)"/>
</svg>
